<svg width="24" height="24" viewBox="0 0 24 24" fill="none" xmlns="http://www.w3.org/2000/svg">
<path d="M-1.25666e-07 12.2159C-1.25666e-07 12.4241 0.167595 12.5929 0.374348 12.5929H9.87661C10.0834 12.5929 10.251 12.4241 10.251 12.2159V-9.20474e-09H-1.25666e-07V12.2159ZM7.23118 2.0789H8.63499V10.2986H7.23118V2.0789ZM4.42357 2.0789H5.82738V10.2986H4.42357V2.0789ZM1.61597 2.0789H3.01977V10.2986H1.61597V2.0789Z" transform="translate(7.02087 7.89489)" fill="#BDBDBD"/>
<path d="M9.30163 1.73264V0.377026C9.30163 0.168795 9.13403 0 8.92728 0H3.36541C3.15865 0 2.99106 0.168795 2.99106 0.377026V1.73264V1.96828V2.20393H0.374348C0.167595 2.20393 1.02818e-08 2.37272 1.02818e-08 2.58095V3.53438C1.02818e-08 3.74259 0.167595 3.9114 0.374348 3.9114H1.02086H11.2718H11.9183C12.1251 3.9114 12.2927 3.74259 12.2927 3.53438V2.58095C12.2927 2.37272 12.1251 2.20393 11.9183 2.20393H9.30163V1.96828V1.73264ZM7.89782 2.12641H4.39486V1.96827V1.73262V1.41385H7.89782V1.73264V1.96828V2.12641Z" transform="translate(6 3.51219)" fill="#BDBDBD"/>
</svg>
